<svg width="49" height="65" viewBox="0 0 49 65" fill="none" xmlns="http://www.w3.org/2000/svg">
<path d="M42.875 8.125H32.6667C32.6667 3.64355 29.0044 0 24.5 0C19.9956 0 16.3333 3.64355 16.3333 8.125H6.125C2.74349 8.125 0 10.8545 0 14.2188V58.9062C0 62.2705 2.74349 65 6.125 65H42.875C46.2565 65 49 62.2705 49 58.9062V14.2188C49 10.8545 46.2565 8.125 42.875 8.125ZM24.5 5.07812C26.1971 5.07812 27.5625 6.43652 27.5625 8.125C27.5625 9.81348 26.1971 11.1719 24.5 11.1719C22.8029 11.1719 21.4375 9.81348 21.4375 8.125C21.4375 6.43652 22.8029 5.07812 24.5 5.07812ZM36.75 43.6719C36.75 44.2305 36.2906 44.6875 35.7292 44.6875H28.5833V51.7969C28.5833 52.3555 28.124 52.8125 27.5625 52.8125H21.4375C20.876 52.8125 20.4167 52.3555 20.4167 51.7969V44.6875H13.2708C12.7094 44.6875 12.25 44.2305 12.25 43.6719V37.5781C12.25 37.0195 12.7094 36.5625 13.2708 36.5625H20.4167V29.4531C20.4167 28.8945 20.876 28.4375 21.4375 28.4375H27.5625C28.124 28.4375 28.5833 28.8945 28.5833 29.4531V36.5625H35.7292C36.2906 36.5625 36.75 37.0195 36.75 37.5781V43.6719ZM36.75 19.2969C36.75 19.8555 36.2906 20.3125 35.7292 20.3125H13.2708C12.7094 20.3125 12.25 19.8555 12.25 19.2969V17.2656C12.25 16.707 12.7094 16.25 13.2708 16.25H35.7292C36.2906 16.25 36.75 16.707 36.75 17.2656V19.2969Z" fill="#002B44"/>
</svg>
