<svg width="20" height="27" viewBox="0 0 20 27" fill="none" xmlns="http://www.w3.org/2000/svg">
<path d="M17.5 3.375H13.3333C13.3333 1.51348 11.8385 0 10 0C8.16146 0 6.66667 1.51348 6.66667 3.375H2.5C1.11979 3.375 0 4.50879 0 5.90625V24.4688C0 25.8662 1.11979 27 2.5 27H17.5C18.8802 27 20 25.8662 20 24.4688V5.90625C20 4.50879 18.8802 3.375 17.5 3.375ZM5 22.3594C4.30729 22.3594 3.75 21.7951 3.75 21.0938C3.75 20.3924 4.30729 19.8281 5 19.8281C5.69271 19.8281 6.25 20.3924 6.25 21.0938C6.25 21.7951 5.69271 22.3594 5 22.3594ZM5 17.2969C4.30729 17.2969 3.75 16.7326 3.75 16.0312C3.75 15.3299 4.30729 14.7656 5 14.7656C5.69271 14.7656 6.25 15.3299 6.25 16.0312C6.25 16.7326 5.69271 17.2969 5 17.2969ZM5 12.2344C4.30729 12.2344 3.75 11.6701 3.75 10.9688C3.75 10.2674 4.30729 9.70312 5 9.70312C5.69271 9.70312 6.25 10.2674 6.25 10.9688C6.25 11.6701 5.69271 12.2344 5 12.2344ZM10 2.10938C10.6927 2.10938 11.25 2.67363 11.25 3.375C11.25 4.07637 10.6927 4.64062 10 4.64062C9.30729 4.64062 8.75 4.07637 8.75 3.375C8.75 2.67363 9.30729 2.10938 10 2.10938ZM16.6667 21.5156C16.6667 21.7477 16.4792 21.9375 16.25 21.9375H8.75C8.52083 21.9375 8.33333 21.7477 8.33333 21.5156V20.6719C8.33333 20.4398 8.52083 20.25 8.75 20.25H16.25C16.4792 20.25 16.6667 20.4398 16.6667 20.6719V21.5156ZM16.6667 16.4531C16.6667 16.6852 16.4792 16.875 16.25 16.875H8.75C8.52083 16.875 8.33333 16.6852 8.33333 16.4531V15.6094C8.33333 15.3773 8.52083 15.1875 8.75 15.1875H16.25C16.4792 15.1875 16.6667 15.3773 16.6667 15.6094V16.4531ZM16.6667 11.3906C16.6667 11.6227 16.4792 11.8125 16.25 11.8125H8.75C8.52083 11.8125 8.33333 11.6227 8.33333 11.3906V10.5469C8.33333 10.3148 8.52083 10.125 8.75 10.125H16.25C16.4792 10.125 16.6667 10.3148 16.6667 10.5469V11.3906Z" fill="white"/>
</svg>
