<svg width="27" height="26" viewBox="0 0 27 26" fill="none" xmlns="http://www.w3.org/2000/svg">
<path d="M27 13C27 20.1813 20.9553 26 13.5 26C6.04468 26 0 20.1813 0 13C0 5.8229 6.04468 0 13.5 0C20.9553 0 27 5.8229 27 13ZM13.8623 4.29839C10.8957 4.29839 9.00363 5.50178 7.51787 7.64054C7.32538 7.91763 7.38978 8.29133 7.66566 8.49277L9.55452 9.87193C9.83785 10.0788 10.2415 10.0296 10.4617 9.76069C11.4341 8.57298 12.1009 7.88424 13.581 7.88424C14.6931 7.88424 16.0686 8.57345 16.0686 9.61187C16.0686 10.3969 15.3956 10.8001 14.2976 11.3929C13.017 12.0841 11.3226 12.9445 11.3226 15.0968V15.3065C11.3226 15.6538 11.6151 15.9355 11.9758 15.9355H15.0242C15.3849 15.9355 15.6774 15.6538 15.6774 15.3065V15.2366C15.6774 13.7446 20.2057 13.6825 20.2057 9.64516C20.2057 6.60473 16.9306 4.29839 13.8623 4.29839ZM13.5 17.2984C12.1192 17.2984 10.996 18.3801 10.996 19.7097C10.996 21.0392 12.1192 22.121 13.5 22.121C14.8808 22.121 16.004 21.0392 16.004 19.7097C16.004 18.3801 14.8808 17.2984 13.5 17.2984Z" fill="white"/>
</svg>
