<svg width="24" height="24" viewBox="0 0 24 24" fill="none" xmlns="http://www.w3.org/2000/svg">
<path d="M13.0422 0.439185C12.7609 0.157975 12.3795 0 11.9817 0C11.584 0 11.2025 0.157975 10.9212 0.439185L0.421073 10.9393C0.147833 11.2222 -0.00336097 11.6011 5.67047e-05 11.9944C0.00347438 12.3877 0.16123 12.764 0.439346 13.0421C0.717462 13.3202 1.09369 13.478 1.48699 13.4814C1.88029 13.4848 2.25919 13.3336 2.5421 13.0604L2.98161 12.6208V22.5C2.98161 22.8978 3.13965 23.2793 3.42095 23.5607C3.70226 23.842 4.0838 24 4.48163 24H7.48167C7.8795 24 8.26103 23.842 8.54234 23.5607C8.82365 23.2793 8.98169 22.8978 8.98169 22.5V19.4999C8.98169 19.1021 9.13973 18.7206 9.42103 18.4393C9.70234 18.158 10.0839 17.9999 10.4817 17.9999H13.4817C13.8796 17.9999 14.2611 18.158 14.5424 18.4393C14.8237 18.7206 14.9818 19.1021 14.9818 19.4999V22.5C14.9818 22.8978 15.1398 23.2793 15.4211 23.5607C15.7024 23.842 16.084 24 16.4818 24H19.4818C19.8797 24 20.2612 23.842 20.5425 23.5607C20.8238 23.2793 20.9818 22.8978 20.9818 22.5V12.6208L21.4214 13.0604C21.7043 13.3336 22.0832 13.4848 22.4765 13.4814C22.8698 13.478 23.246 13.3202 23.5241 13.0421C23.8022 12.764 23.96 12.3877 23.9634 11.9944C23.9668 11.6011 23.8156 11.2222 23.5424 10.9393L13.0422 0.439185Z" fill="white"/>
</svg>
