<?xml version="1.0" encoding="UTF-8"?><svg id="Ebene_1" xmlns="http://www.w3.org/2000/svg" xmlns:xlink="http://www.w3.org/1999/xlink" viewBox="0 0 170.08 25.08"><defs><style>.cls-1{clip-path:url(#clippath-1);}.cls-2{clip-path:url(#clippath);}.cls-3{fill:#ffde00;}.cls-4{fill:none;}.cls-5{fill:#1d1d1b;}</style><clipPath id="clippath"><rect class="cls-4" x="0" y="0" width="170.08" height="25.08"/></clipPath><clipPath id="clippath-1"><rect class="cls-4" x="-1.53" y="-84.83" width="170.08" height="25.08"/></clipPath></defs><g class="cls-2"><rect class="cls-3" x="-21.06" y="-9.27" width="192.51" height="39.55"/><g><polygon class="cls-5" points="-25.32 149.54 -38.32 149.54 20.05 -2.86 33.06 -2.86 -25.32 149.54"/><polygon class="cls-5" points="-.7 149.69 -13.7 149.69 44.67 -2.71 57.67 -2.71 -.7 149.69"/><polygon class="cls-5" points="23.92 149.84 10.92 149.84 69.29 -2.56 82.29 -2.56 23.92 149.84"/><polygon class="cls-5" points="48.54 150 35.53 150 93.91 -2.4 106.91 -2.4 48.54 150"/><polygon class="cls-5" points="73.15 150.15 60.15 150.15 118.53 -2.25 131.53 -2.25 73.15 150.15"/><polygon class="cls-5" points="97.77 150.31 84.77 150.31 143.15 -2.09 156.15 -2.09 97.77 150.31"/><polygon class="cls-5" points="122.39 150.46 109.39 150.46 167.77 -1.94 180.77 -1.94 122.39 150.46"/><polygon class="cls-5" points="-49.62 149.54 -62.62 149.54 -4.24 -2.86 8.76 -2.86 -49.62 149.54"/></g></g><g class="cls-1"><g><polygon class="cls-5" points="-17.25 64.71 -30.25 64.71 28.13 -87.69 41.13 -87.69 -17.25 64.71"/><polygon class="cls-5" points="7.37 64.86 -5.63 64.86 52.75 -87.54 65.75 -87.54 7.37 64.86"/><polygon class="cls-5" points="31.99 65.01 18.99 65.01 77.37 -87.39 90.37 -87.39 31.99 65.01"/><polygon class="cls-5" points="56.61 65.17 43.61 65.17 101.99 -87.23 114.99 -87.23 56.61 65.17"/><polygon class="cls-5" points="81.23 65.32 68.23 65.32 126.6 -87.08 139.61 -87.08 81.23 65.32"/><polygon class="cls-5" points="105.85 65.48 92.85 65.48 151.22 -86.92 164.22 -86.92 105.85 65.48"/><polygon class="cls-5" points="130.47 65.63 117.47 65.63 175.84 -86.77 188.84 -86.77 130.47 65.63"/><polygon class="cls-5" points="-41.54 64.71 -54.55 64.71 3.83 -87.69 16.83 -87.69 -41.54 64.71"/></g></g></svg>