<?xml version="1.0" encoding="UTF-8"?><svg id="Ebene_1" xmlns="http://www.w3.org/2000/svg" xmlns:xlink="http://www.w3.org/1999/xlink" viewBox="0 0 170.08 25.08"><defs><style>.cls-1{clip-path:url(#clippath);}.cls-2{fill:#ffde00;}.cls-3{fill:none;}.cls-4{fill:#1d1d1b;}</style><clipPath id="clippath"><rect class="cls-3" x="0" y="0" width="170.08" height="25.08"/></clipPath></defs><g class="cls-1"><rect class="cls-2" x="-11.46" y="-9.27" width="192.51" height="39.55"/><g><polygon class="cls-4" points="-15.71 149.54 -28.72 149.54 29.66 -2.86 42.66 -2.86 -15.71 149.54"/><polygon class="cls-4" points="8.9 149.69 -4.1 149.69 54.28 -2.71 67.28 -2.71 8.9 149.69"/><polygon class="cls-4" points="33.52 149.84 20.52 149.84 78.9 -2.56 91.9 -2.56 33.52 149.84"/><polygon class="cls-4" points="58.14 150 45.14 150 103.52 -2.4 116.52 -2.4 58.14 150"/><polygon class="cls-4" points="82.76 150.15 69.76 150.15 128.14 -2.25 141.14 -2.25 82.76 150.15"/><polygon class="cls-4" points="107.38 150.31 94.38 150.31 152.76 -2.09 165.76 -2.09 107.38 150.31"/><polygon class="cls-4" points="132 150.46 119 150.46 177.37 -1.94 190.37 -1.94 132 150.46"/><polygon class="cls-4" points="-40.01 149.54 -53.01 149.54 5.36 -2.86 18.36 -2.86 -40.01 149.54"/></g></g></svg>