<svg width="60" height="60" viewBox="0 0 60 60" fill="none" xmlns="http://www.w3.org/2000/svg">
<g clip-path="url(#clip0_227_272)">
<path d="M29.999 60V49.6466C40.8324 49.6466 49.6449 40.8338 49.6449 30C49.6449 19.1662 40.8324 10.3534 29.999 10.3534H10.353V31.0229H0V0H29.999C46.5411 0 59.9979 13.4573 59.9979 30C59.9979 46.5427 46.5411 60 29.999 60Z" fill="white"/>
<path d="M38.4263 21.5744C34.0677 17.2156 27.0028 17.2156 22.6462 21.5744C19.2753 24.9454 18.5154 29.9337 20.3582 34.0378L18.3062 41.6972L25.9654 39.6452C30.0694 41.4881 35.0575 40.7261 38.4284 37.355C42.787 32.9962 42.787 25.9311 38.4284 21.5744H38.4263Z" fill="#D63100"/>
</g>
<defs>
<clipPath id="clip0_227_272">
<rect width="60" height="60" fill="white"/>
</clipPath>
</defs>
</svg>
